<svg width="87" height="26" viewBox="0 0 87 26" fill="none" xmlns="http://www.w3.org/2000/svg">
<path d="M0 18.5L14.5 0V23.5L0 18.5Z" fill="#7D24C4"/>
<path d="M19.2474 8.2H20.7063V20.7383H28.4343V22H19.2474V8.2ZM39.4359 17.2489H30.7617C30.8405 18.3266 31.2545 19.2006 32.0037 19.8709C32.7528 20.528 33.6991 20.8566 34.8425 20.8566C35.4865 20.8566 36.0779 20.7449 36.6168 20.5214C37.1557 20.2849 37.6222 19.9431 38.0165 19.4963L38.8051 20.4031C38.3451 20.9551 37.7668 21.3757 37.0702 21.6649C36.3868 21.954 35.6311 22.0986 34.8031 22.0986C33.7385 22.0986 32.7922 21.8751 31.9642 21.4283C31.1494 20.9683 30.5119 20.3374 30.0519 19.5357C29.5919 18.734 29.3619 17.8271 29.3619 16.8151C29.3619 15.8031 29.5788 14.8963 30.0125 14.0946C30.4594 13.2929 31.0639 12.6686 31.8262 12.2217C32.6017 11.7749 33.4691 11.5514 34.4285 11.5514C35.3879 11.5514 36.2488 11.7749 37.0111 12.2217C37.7734 12.6686 38.3714 13.2929 38.8051 14.0946C39.2388 14.8831 39.4557 15.79 39.4557 16.8151L39.4359 17.2489ZM34.4285 12.754C33.4297 12.754 32.5885 13.076 31.9051 13.72C31.2348 14.3509 30.8537 15.1789 30.7617 16.204H38.1151C38.0231 15.1789 37.6354 14.3509 36.9519 13.72C36.2817 13.076 35.4405 12.754 34.4285 12.754ZM45.6433 11.5514C46.997 11.5514 48.0353 11.8931 48.7582 12.5766C49.481 13.2469 49.8425 14.2457 49.8425 15.5731V22H48.5019V20.3834C48.1865 20.9223 47.7199 21.3429 47.1022 21.6451C46.4976 21.9474 45.7747 22.0986 44.9336 22.0986C43.777 22.0986 42.857 21.8226 42.1736 21.2706C41.4902 20.7186 41.1485 19.9891 41.1485 19.0823C41.1485 18.2017 41.4639 17.492 42.0947 16.9531C42.7387 16.4143 43.7573 16.1449 45.1505 16.1449H48.4427V15.514C48.4427 14.6203 48.193 13.9434 47.6936 13.4834C47.1942 13.0103 46.4647 12.7737 45.5053 12.7737C44.8482 12.7737 44.2173 12.8854 43.6127 13.1089C43.0082 13.3191 42.489 13.6149 42.0553 13.996L41.4245 12.9511C41.9502 12.5043 42.581 12.1626 43.317 11.926C44.053 11.6763 44.8285 11.5514 45.6433 11.5514ZM45.1505 20.9946C45.939 20.9946 46.6159 20.8171 47.181 20.4623C47.7462 20.0943 48.1667 19.5686 48.4427 18.8851V17.1897H45.1899C43.4156 17.1897 42.5285 17.8074 42.5285 19.0429C42.5285 19.6474 42.7585 20.1271 43.2185 20.482C43.6785 20.8237 44.3225 20.9946 45.1505 20.9946ZM54.9848 13.6609C55.3134 12.9643 55.7997 12.4386 56.4437 12.0837C57.1008 11.7289 57.9091 11.5514 58.8685 11.5514V12.9117L58.5334 12.892C57.4425 12.892 56.5882 13.2271 55.9705 13.8974C55.3528 14.5677 55.044 15.5074 55.044 16.7166V22H53.6442V11.6303H54.9848V13.6609ZM66.6863 11.5514C67.9875 11.5514 69.0192 11.9326 69.7815 12.6949C70.5569 13.444 70.9446 14.5414 70.9446 15.9871V22H69.5449V16.1251C69.5449 15.0474 69.2755 14.226 68.7366 13.6609C68.1977 13.0957 67.4289 12.8131 66.43 12.8131C65.3129 12.8131 64.4257 13.1483 63.7686 13.8186C63.1246 14.4757 62.8026 15.3891 62.8026 16.5589V22H61.4029V11.6303H62.7435V13.5426C63.1246 12.9117 63.6503 12.4254 64.3206 12.0837C65.004 11.7289 65.7926 11.5514 66.6863 11.5514ZM75.0404 8.2H76.4993V22H75.0404V8.2ZM86.1545 21.3691C85.8916 21.6057 85.5631 21.7897 85.1688 21.9211C84.7876 22.0394 84.3868 22.0986 83.9662 22.0986C82.9936 22.0986 82.2445 21.8357 81.7188 21.31C81.1931 20.7843 80.9302 20.0417 80.9302 19.0823V12.8131H79.0771V11.6303H80.9302V9.36314H82.3299V11.6303H85.4842V12.8131H82.3299V19.0034C82.3299 19.6211 82.4811 20.0943 82.7833 20.4229C83.0988 20.7383 83.5456 20.896 84.1239 20.896C84.4131 20.896 84.6891 20.85 84.9519 20.758C85.2279 20.666 85.4645 20.5346 85.6616 20.3637L86.1545 21.3691Z" fill="white"/>
</svg>
